<?xml version="1.0" encoding="iso-8859-1"?>
<!-- Generator: Adobe Illustrator 17.1.0, SVG Export Plug-In . SVG Version: 6.00 Build 0)  -->
<!DOCTYPE svg PUBLIC "-//W3C//DTD SVG 1.1//EN" "http://www.w3.org/Graphics/SVG/1.1/DTD/svg11.dtd">
<svg version="1.1" id="Capa_1" xmlns="http://www.w3.org/2000/svg" xmlns:xlink="http://www.w3.org/1999/xlink" x="0px" y="0px"
	 viewBox="0 0 476.14 476.14" style="enable-background:new 0 0 476.14 476.14;" xml:space="preserve">
<path d="M466.535,257.983c-6.739-2.791-14.15-0.675-18.441,5.262c-17.213,23.816-40.396,42.803-67.043,54.908
	c-27.774,12.617-58.786,17.396-89.672,13.826c-76.464-8.843-138.378-70.759-147.219-147.223c-3.571-30.889,1.21-61.896,13.828-89.67
	c12.105-26.646,31.092-49.828,54.907-67.041c5.937-4.292,8.052-11.703,5.262-18.441c-2.81-6.787-9.593-10.562-16.881-9.394
	C143.081,9.544,90.503,40.047,53.226,86.101C15.378,132.862-3.35,191.883,0.493,252.293c3.662,57.562,28.479,112.064,69.882,153.468
	s95.904,66.223,153.467,69.886c5.18,0.329,10.343,0.493,15.496,0.493c54.939-0.002,107.947-18.623,150.699-53.226
	c46.055-37.276,76.559-89.855,85.893-148.051C477.098,267.577,473.323,260.792,466.535,257.983z M461.119,272.488
	c-8.748,54.539-37.343,103.82-80.519,138.767c-43.829,35.475-99.156,53.036-155.806,49.422
	c-53.918-3.431-104.992-26.7-143.812-65.521c-38.821-38.821-62.089-89.896-65.519-143.814
	C11.86,194.698,29.412,139.366,64.886,95.538c34.946-43.175,84.227-71.77,138.766-80.518c0.1-0.016,0.177-0.022,0.238-0.022
	c0.168,0,0.215,0.053,0.27,0.115c0.176,0.202,0.216,0.473,0.195,0.543c-0.01,0.021-0.077,0.109-0.246,0.232
	c-25.925,18.736-46.596,43.978-59.777,72.993c-13.744,30.253-18.956,64.002-15.071,97.597
	c9.632,83.308,77.088,150.767,160.396,160.4c33.598,3.888,67.346-1.326,97.6-15.069c29.017-13.183,54.259-33.854,72.996-59.778
	c0.122-0.169,0.21-0.236,0.23-0.245c0.068-0.026,0.343,0.018,0.545,0.194C461.111,272.055,461.179,272.114,461.119,272.488z"/>
<g>
</g>
<g>
</g>
<g>
</g>
<g>
</g>
<g>
</g>
<g>
</g>
<g>
</g>
<g>
</g>
<g>
</g>
<g>
</g>
<g>
</g>
<g>
</g>
<g>
</g>
<g>
</g>
<g>
</g>
</svg>
